# xmcd
#
# Track frame offsets:
#	150
#	12330
#	28565
#	42012
#	56669
#	69309
#	80846
#	93286
#	106243
#	122555
#	135172
#	149176
#	166104
#	178742
#	196500
#	209134
#	230089
#	244514
#	259736
#	278642
#
# Disc length: 3943 seconds
#
# Revision: 1
# Processed by: cddbd v1.4PL0 Copyright (c) Steve Scherf et al.
# Submitted via: EasyCDDAExtractor 6.0.0.1
#
DISCID=140f6514
DTITLE=Various Artist - O melhor De Ronaldo Viola and João Carvalho e Goiano and 
DTITLE=Paranaense(dimas som)
DYEAR=2002
DGENRE=Country
TTITLE0=Ronaldo Viola and João Carvalho - Flor De Goiás-Ronaldo Viola and João Car
TTITLE0=valho
TTITLE1=Gioano and Paranaense - O Doutor E O Caipira-Gioano and Paranaense
TTITLE2=Ronaldo Viola and João Carvalho - paixão goiana-Ronaldo Viola and João Car
TTITLE2=valho
TTITLE3=Goiano and Paranaense - a viola e a saudade-goiano and paranaense
TTITLE4=Ronaldo Viola and João Carvalho - viola pagodeira-Ronaldo Viola and João C
TTITLE4=arvalho
TTITLE5=Goiano and Paranaense - o caipira lavrador-goiano and paranaense
TTITLE6=Ronaldo Viola and João Carvalho - pagode do grotão-Ronaldo Viola and João 
TTITLE6=Carvalho
TTITLE7=Goiano and Paranaense - grito de liberdade-Goiano and paranaense
TTITLE8=Ronaldo Viola and João Carvalho - surdo de bão-Ronaldo Viola and João Carv
TTITLE8=alho
TTITLE9=Goiano and Paranaense - a voz do cantador-goiano and paranaense
TTITLE10=Ronaldo Viola and João Carvalho - rodeio brasileiro-Ronaldo Viola and Joã
TTITLE10=o Carvalho
TTITLE11=Goiano and Paranaense - o grande amigo-goiano and paranaense
TTITLE12=Ronaldo Viola and João Carvalho - rainha do meu destino-Ronaldo Viola &
TTITLE12=João Carvalho
TTITLE13=Goiano and Paranaense - a vida de um boiadeiro-goiano and paranaense
TTITLE14=Ronaldo Viola and João Carvalho - dama da noite-Ronaldo Viola and João Ca
TTITLE14=rvalho
TTITLE15=Goiano and Paranaense - vale de lágrimas-goiano and paranaense
TTITLE16=Ronaldo Viola and João Carvalho - batidão lascado-Ronaldo Viola and João 
TTITLE16=Carvalho
TTITLE17=Goiano and Paranaense - gaiteiro velho-goiano and paranaense
TTITLE18=Ronaldo Viola and João Carvalho - carro de boi-Ronaldo Viola and João Car
TTITLE18=valho
TTITLE19=Goiano and Paranaense - estou ficando por aqui-goiano and paranaense
EXTD=
EXTT0=
EXTT1=
EXTT2=
EXTT3=
EXTT4=
EXTT5=
EXTT6=
EXTT7=
EXTT8=
EXTT9=
EXTT10=
EXTT11=
EXTT12=
EXTT13=
EXTT14=
EXTT15=
EXTT16=
EXTT17=
EXTT18=
EXTT19=
PLAYORDER=
